<?xml version="1.0" standalone="no"?>
<!DOCTYPE svg PUBLIC "-//W3C//DTD SVG 20010904//EN"
 "http://www.w3.org/TR/2001/REC-SVG-20010904/DTD/svg10.dtd">
<svg version="1.0" xmlns="http://www.w3.org/2000/svg"
 width="1080.000000pt" height="1065.000000pt" viewBox="0 0 1080.000000 1065.000000"
 preserveAspectRatio="xMidYMid meet">

<g transform="translate(0.000000,1065.000000) scale(0.100000,-0.100000)"
fill="#000000" stroke="none">
<path d="M0 5325 l0 -5325 5400 0 5400 0 0 5325 0 5325 -5400 0 -5400 0 0
-5325z m5566 2534 c680 -66 1262 -565 1430 -1228 26 -100 54 -293 54 -367 l0
-44 -109 0 -109 0 -6 68 c-12 138 -36 263 -70 369 -116 357 -361 646 -706 832
-96 51 -288 115 -410 136 -126 22 -355 22 -479 0 -459 -80 -847 -374 -1047
-792 -78 -164 -114 -307 -140 -555 l-5 -58 -110 0 -109 0 0 35 c0 65 21 229
41 320 108 487 437 907 884 1125 282 137 576 190 891 159z m-662 -779 c119
-30 208 -82 301 -175 90 -90 155 -204 177 -308 7 -31 15 -57 18 -57 3 0 11 26
19 58 54 234 262 438 496 487 75 16 165 20 165 8 0 -5 -127 -135 -282 -291
l-283 -283 70 34 c101 51 183 70 300 70 170 1 322 -56 437 -163 l53 -49 -420
-1 c-306 -1 -413 -4 -395 -12 113 -48 161 -77 218 -134 92 -92 152 -231 152
-353 0 -35 -3 -33 -261 224 -234 234 -260 256 -254 225 14 -73 70 -226 114
-314 41 -82 51 -93 91 -113 240 -115 259 -126 380 -224 196 -158 282 -193 465
-192 175 2 261 38 445 187 143 117 228 169 336 204 70 23 235 48 259 39 13 -6
15 -24 13 -124 l-3 -118 -70 -8 c-142 -15 -212 -51 -400 -202 -145 -117 -277
-185 -404 -211 -126 -25 -338 -16 -446 19 -101 33 -204 94 -325 193 -208 169
-279 199 -470 199 -191 0 -253 -26 -463 -194 -230 -184 -350 -231 -597 -231
-240 0 -383 57 -598 237 -80 67 -174 131 -212 145 -26 9 -33 7 -59 -20 -63
-62 -174 -88 -269 -61 -61 17 -152 105 -170 165 -63 216 126 406 340 342 47
-14 129 -84 150 -128 12 -25 32 -39 93 -65 94 -41 147 -76 285 -186 183 -146
262 -180 425 -183 188 -2 271 31 470 189 136 108 220 160 311 195 103 38 118
52 169 156 44 92 95 231 110 304 6 31 -20 9 -247 -217 -139 -139 -256 -253
-261 -253 -12 0 -8 60 8 128 23 98 63 170 135 243 60 61 102 87 220 137 18 8
-89 11 -394 11 l-419 1 24 26 c121 132 359 213 543 185 90 -13 184 -43 246
-78 33 -19 -28 48 -237 258 -156 156 -283 287 -283 292 0 14 108 7 184 -13z
m2722 -1689 c49 -22 106 -79 130 -129 26 -54 30 -153 9 -209 -22 -57 -75 -117
-129 -146 -32 -17 -58 -22 -121 -22 -87 0 -138 19 -184 69 -14 14 -32 26 -40
26 -26 0 -110 -54 -211 -135 -248 -199 -349 -243 -581 -252 -105 -4 -155 -2
-220 12 -156 31 -243 78 -443 238 -172 137 -272 177 -444 177 -163 0 -251 -37
-433 -182 -141 -111 -206 -154 -289 -189 -109 -46 -214 -62 -369 -57 -218 8
-335 57 -550 227 -191 152 -257 185 -394 199 l-72 7 0 120 0 120 77 -2 c161
-4 314 -68 483 -202 233 -186 290 -212 466 -219 68 -2 140 1 173 8 84 17 180
70 291 161 138 112 207 157 297 195 187 79 422 85 623 14 86 -30 181 -89 313
-196 189 -152 268 -184 452 -184 183 0 251 29 455 190 127 101 291 200 331
200 7 0 21 16 30 37 24 48 78 101 128 124 55 25 166 25 222 0z m-3928 -1313
l3 -147 49 31 c37 23 65 31 114 35 115 10 202 -40 247 -139 22 -48 24 -66 24
-198 -1 -165 -13 -208 -80 -273 -46 -45 -92 -61 -170 -61 -78 0 -124 16 -168
61 -38 37 -43 36 -49 -17 -3 -24 -7 -25 -75 -28 l-73 -3 0 446 0 446 88 -3 87
-3 3 -147z m1862 -9 l0 -161 42 36 c47 40 91 56 158 56 75 0 121 -19 172 -69
62 -62 82 -129 82 -271 0 -225 -81 -333 -249 -333 -85 -1 -134 19 -181 70 -33
35 -34 36 -34 12 0 -58 -10 -69 -56 -69 l-44 0 0 445 0 445 55 0 55 0 0 -161z
m2670 1 c0 -88 2 -160 4 -160 3 0 19 13 37 30 85 77 251 80 325 6 18 -18 37
-50 43 -71 7 -24 11 -139 11 -287 l0 -248 -55 0 -55 0 0 238 c0 219 -2 239
-20 270 -50 82 -196 68 -260 -25 -25 -36 -25 -41 -28 -260 l-3 -223 -55 0 -54
0 0 445 0 445 55 0 55 0 0 -160z m-5674 -85 c91 -27 153 -101 169 -202 l7 -43
-89 0 -89 0 -10 42 c-12 56 -50 83 -114 82 -99 -1 -134 -55 -134 -204 0 -143
32 -191 132 -198 52 -4 62 -1 90 23 22 19 34 39 38 66 l7 40 81 -3 81 -3 -3
-35 c-4 -55 -22 -99 -55 -136 -62 -72 -179 -105 -298 -85 -118 19 -178 62
-220 156 -28 61 -37 212 -20 297 13 59 60 137 102 166 71 49 225 67 325 37z
m2125 -2 c68 -22 130 -82 153 -149 10 -27 20 -86 23 -131 l6 -83 -227 0 c-252
0 -237 5 -214 -72 18 -61 57 -88 128 -88 33 0 70 5 84 11 23 11 56 62 56 88 0
7 30 11 85 11 96 0 97 -1 73 -84 -35 -117 -199 -187 -368 -156 -78 14 -113 31
-163 78 -120 115 -109 431 19 528 81 62 234 83 345 47z m663 11 c13 -5 16 -22
16 -85 l0 -79 -50 0 c-62 0 -105 -21 -130 -63 -18 -29 -20 -51 -20 -229 l0
-198 -90 0 -90 0 0 325 0 325 70 0 c76 0 74 1 85 -64 l6 -38 27 41 c14 22 40
47 57 56 31 15 91 20 119 9z m1160 -5 c72 -20 112 -53 145 -121 27 -53 32 -76
34 -148 l2 -85 -227 -3 -228 -2 1 -38 c1 -68 35 -131 85 -157 34 -18 145 -20
177 -4 40 21 67 52 77 91 11 38 11 38 60 38 50 0 50 0 50 -32 -1 -116 -112
-201 -265 -202 -143 -1 -226 47 -277 159 -20 43 -23 66 -23 170 0 207 56 301
200 336 46 11 146 10 189 -2z m672 -4 c55 -17 95 -48 118 -93 13 -25 16 -68
16 -236 0 -112 3 -211 6 -220 4 -11 19 -16 45 -16 39 0 39 0 39 -39 0 -44 -12
-51 -91 -51 -49 0 -80 22 -93 67 -7 22 -8 22 -51 -12 -57 -43 -105 -59 -185
-59 -131 0 -200 60 -200 173 0 142 95 208 313 219 l107 5 0 53 c0 101 -31 129
-145 129 -87 0 -119 -18 -136 -75 -12 -40 -13 -40 -61 -40 l-48 0 0 40 c0 77
47 130 138 155 65 18 169 18 228 0z m701 -14 c69 -35 113 -110 113 -193 l0
-39 -52 3 -53 3 -7 45 c-10 60 -36 92 -87 109 -105 34 -198 -22 -221 -134 -17
-84 -8 -210 19 -263 30 -58 71 -82 144 -82 95 0 135 33 151 123 7 37 7 37 56
37 49 0 50 0 50 -31 0 -84 -57 -174 -130 -203 -52 -21 -171 -24 -232 -7 -63
18 -120 69 -149 133 -22 47 -24 67 -24 188 0 120 3 141 23 186 50 109 138 158
277 151 56 -3 94 -11 122 -26z m-4904 -18 c32 -81 117 -321 133 -378 l18 -60
10 35 c5 19 37 125 71 235 l61 200 87 3 c48 1 87 1 87 -2 0 -14 -243 -682
-260 -717 -30 -58 -89 -119 -135 -140 -40 -19 -145 -25 -192 -13 -21 6 -23 13
-23 64 l0 58 60 4 c49 4 65 9 91 34 17 16 35 36 40 45 6 12 -27 107 -116 335
-69 176 -125 322 -125 326 0 5 40 8 89 8 l89 0 15 -37z"/>
<path d="M3245 5921 c-34 -15 -56 -47 -62 -90 -5 -36 -2 -44 30 -76 27 -27 43
-35 72 -35 29 0 45 8 72 35 32 32 35 40 30 77 -3 24 -15 51 -29 65 -26 26 -81
38 -113 24z"/>
<path d="M7444 5216 c-45 -45 -47 -95 -5 -136 35 -36 73 -46 110 -30 42 17 62
43 68 89 5 36 2 44 -30 76 -48 48 -95 49 -143 1z"/>
<path d="M3770 3843 c-53 -27 -74 -79 -74 -183 0 -134 41 -190 137 -190 55 0
86 17 111 60 28 47 29 208 3 257 -34 63 -114 88 -177 56z"/>
<path d="M5653 3884 c-46 -23 -70 -68 -83 -152 -20 -127 9 -238 73 -286 40
-30 144 -30 184 0 52 39 67 79 71 189 5 121 -8 174 -52 223 -31 33 -39 36 -97
39 -45 3 -73 -1 -96 -13z"/>
<path d="M4484 3854 c-35 -17 -64 -61 -64 -98 l0 -26 130 0 c146 0 147 1 116
75 -25 59 -113 83 -182 49z"/>
<path d="M6324 3891 c-47 -22 -80 -68 -90 -129 l-7 -42 173 0 173 0 -5 45
c-14 117 -130 178 -244 126z"/>
<path d="M7039 3630 c-127 -22 -187 -105 -126 -176 19 -22 34 -28 80 -32 117
-9 207 65 207 173 l0 45 -57 -1 c-32 -1 -79 -5 -104 -9z"/>
</g>
</svg>
